<svg viewBox="0 0 80 80" xmlns="http://www.w3.org/2000/svg"><path d="M40 24V16" stroke="#0F3557" stroke-width="2.8" stroke-linecap="round"/><path d="M30 13a3.2 3.2 0 0 1 3.2-3.2h13l5 3.2-5 3.2h-13a3.2 3.2 0 0 1-3.2-3.2z" fill="#0F3557"/><path d="M47 10.4l5.5-8.4h4.2l-2.4 8.4zM47 15.6l5.5 8.4h4.2l-2.4-8.4z" fill="#0F3557"/><rect x="25.4" y="4.5" width="3.4" height="17" rx="1.7" fill="#7FC8F0"/><circle cx="29" cy="13" r="2.6" fill="#0F3557"/><path d="M16 52L9.4 61" stroke="#0F3557" stroke-width="3.4" stroke-linecap="round"/><circle cx="9.4" cy="61" r="3.6" fill="#0F3557"/><path d="M64 49L69 40" stroke="#0F3557" stroke-width="3.4" stroke-linecap="round"/><circle cx="69" cy="40" r="3.6" fill="#0F3557"/><rect x="27" y="63" width="8" height="10" rx="3" fill="#0F3557"/><rect x="45" y="63" width="8" height="10" rx="3" fill="#0F3557"/><path d="M14 47a26 24 0 0 1 52 0v5a14 14 0 0 1-14 14H28a14 14 0 0 1-14-14z" fill="#29A0E2"/><rect x="21" y="35" width="38" height="24" rx="10" fill="#0F3557"/><circle cx="70" cy="31" r="8.6" fill="#29A0E2" stroke="#ffffff" stroke-width="2"/><path d="M66 31.2l3 3 5.4-6" stroke="#ffffff" stroke-width="2.8" fill="none" stroke-linecap="round" stroke-linejoin="round"/><path d="M27.4 46q4.5 -5.5 9.1 0M43.5 46q4.5 -5.5 9.1 0" stroke="#8FE3FF" stroke-width="3.5" fill="none" stroke-linecap="round"/><path d="M34.1 51.5q5.9 6.5 11.7 0" stroke="#8FE3FF" stroke-width="2.5" fill="none" stroke-linecap="round"/></svg>
