<svg viewBox="0 0 80 80" xmlns="http://www.w3.org/2000/svg"><path d="M24 44 C14 44 12.5 33 20.5 30 C19.5 19.5 32 13 41 19 C50 11 62.5 17 60 28 C68.5 30 67.5 44 58 44 Z" fill="#5b7fc4"/><g stroke="#4a7fd0" stroke-width="4" stroke-linecap="round"><line x1="28" y1="52" x2="24.5" y2="60"/><line x1="41" y1="54" x2="37.5" y2="62"/><line x1="54" y1="52" x2="50.5" y2="60"/></g><path d="M30.5 33.5 q2.6 -2.6 5.4 -0.6 M44.1 33.5 q2.6 -2.6 5.4 -0.6" stroke="#fff" stroke-width="2.3" fill="none" stroke-linecap="round" opacity=".95"/><circle cx="34" cy="37.5" r="2.6" fill="#fff"/><circle cx="47" cy="37.5" r="2.6" fill="#fff"/><circle cx="34.8" cy="36.8" r=".9" fill="#5b7fc4"/><circle cx="47.8" cy="36.8" r=".9" fill="#5b7fc4"/><path d="M31.5 41.5 c-2 2.6 -2 4.6 0 5.4 c2 -.8 2 -2.8 0 -5.4z" fill="#bcd9f5"/><path d="M49.5 41.5 c-2 2.6 -2 4.6 0 5.4 c2 -.8 2 -2.8 0 -5.4z" fill="#bcd9f5"/><path d="M36.5 44 q4 -4.2 8 0" stroke="#fff" stroke-width="2.6" fill="none" stroke-linecap="round"/></svg>